<?xml version="1.0"?>
<svg viewBox="0 0 1500 1500" xmlns="http://www.w3.org/2000/svg" xmlns:svg="http://www.w3.org/2000/svg">
 <!-- Created with SVG-edit - https://github.com/SVG-Edit/svgedit-->

 <g class="layer">
  <title>Layer 1</title>
  <polygon cx="200" cy="550" edge="553.92" fill="#0c0c2f" id="svg_15" orient="x" points="1473.7252246094868,750.0050048828125 1261.7508593751118,1261.7564697265625 749.9993945313618,1473.7308349609375 238.2478686524555,1261.7564697265625 26.27351104747504,750.0050048828125 238.2478686524555,238.25352478027344 749.9993945313618,26.279165267944336 1261.7508593751118,238.25352478027344 1473.7252246094868,750.0050048828125" shape="regularPoly" sides="8" stroke="#848422" stroke-width="0"/>
  <ellipse cx="750" cy="750" fill="#ffffff" id="svg_16" rx="550" ry="550" stroke="#848422" stroke-width="0"/>
  <polygon cx="1500" cy="1000" fill="#777777" id="svg_2" orient="point" point="8" points="750.0000097658485,296.6744689941406 841.306284179911,529.572021484375 1070.5529882814735,429.4519348144531 970.432993164286,658.69873046875 1203.3303320314735,750.0050048828125 970.432993164286,841.311279296875 1070.5529882814735,1070.5579833984375 841.306284179911,970.43798828125 750.0000097658485,1203.3355712890625 658.693735351786,970.43798828125 429.446909179911,1070.5579833984375 529.567026367411,841.311279296875 296.6694433595985,750.0050048828125 529.567026367411,658.69873046875 429.446909179911,429.4519348144531 658.693735351786,529.572021484375 750.0000097658485,296.6744689941406 841.306284179911,529.572021484375" r="604.44" r2="318.13" radialshift="0" shape="star" starRadiusMultiplier="1.9" stroke="#848422" stroke-width="48"/>
 </g>
</svg>