<?xml version="1.0" encoding="UTF-8"?>
<svg width="3000" height="2000" xmlns="http://www.w3.org/2000/svg" xmlns:svg="http://www.w3.org/2000/svg">
 <!-- Created with SVG-edit - https://github.com/SVG-Edit/svgedit-->

 <g class="layer">
  <title>Layer 1</title>
  <polygon cx="200" cy="550" edge="553.92" fill="#0c0c2f" id="svg_15" orient="x" points="2223.7301659584045,1000.0050048828125 2011.7558007240295,1511.7564697265625 1500.0043358802795,1723.7308349609375 988.2528710365295,1511.7564697265625 776.2785058021545,1000.0050048828125 988.2528710365295,488.2535705566406 1500.0043358802795,276.2791748046875 2011.7558007240295,488.2535705566406 2223.7301659584045,1000.0050048828125 " shape="regularPoly" sides="8" stroke="#848422" stroke-width="0"/>
  <ellipse cx="1500" cy="1000" fill="#ffffff" id="svg_16" rx="550" ry="550" stroke="#848422" stroke-width="0" transform="matrix(1 0 0 1 0 0)"/>
  <ellipse cx="500" cy="1000" fill="#777777" id="svg_4" opacity="0.5" rx="0" ry="0" stroke="#848422" stroke-width="48"/>
  <ellipse cx="0" cy="0" fill="#ffffff" id="svg_3" rx="0" ry="2000" stroke="#848422" stroke-width="0" transform="matrix(1 0 0 1 0 0) matrix(1 0 0 1 0 0)"/>
  <polygon cx="1500" cy="1000" fill="#777777" id="svg_2" orient="point" point="8" points="1500,546.6694946289062 1591.3062744140625,779.5670166015625 1820.552978515625,679.4469604492188 1720.4329833984375,908.6937255859375 1953.330322265625,1000 1720.4329833984375,1091.3062744140625 1820.552978515625,1320.552978515625 1591.3062744140625,1220.4329833984375 1500,1453.33056640625 1408.6937255859375,1220.4329833984375 1179.4468994140625,1320.552978515625 1279.5670166015625,1091.3062744140625 1046.66943359375,1000 1279.5670166015625,908.6937255859375 1179.4468994140625,679.4469604492188 1408.6937255859375,779.5670166015625 1500,546.6694946289062 1591.3062744140625,779.5670166015625 " r="604.44" r2="318.13" radialshift="0" shape="star" starRadiusMultiplier="1.9" stroke="#848422" stroke-width="48" transform="matrix(1 0 0 1 0 0)"/>
 </g>
</svg>